<svg width="615" height="48" viewBox="0 0 615 48" fill="none" xmlns="http://www.w3.org/2000/svg">
<path d="M0 16C0 7.16344 7.16344 0 16 0H599C607.837 0 615 7.16344 615 16V32C615 40.8366 607.837 48 599 48H16C7.16343 48 0 40.8366 0 32V16Z" fill="#292C32"/>
<path d="M51.181 20.333V21.147H47.848V23.732H50.554V24.546H47.848V28H46.847V20.333H51.181ZM52.907 20.993C52.7163 20.993 52.555 20.927 52.423 20.795C52.291 20.663 52.225 20.5017 52.225 20.311C52.225 20.1203 52.291 19.959 52.423 19.827C52.555 19.695 52.7163 19.629 52.907 19.629C53.0903 19.629 53.2443 19.695 53.369 19.827C53.501 19.959 53.567 20.1203 53.567 20.311C53.567 20.5017 53.501 20.663 53.369 20.795C53.2443 20.927 53.0903 20.993 52.907 20.993ZM53.391 21.972V28H52.39V21.972H53.391ZM56.098 22.951C56.274 22.6063 56.5233 22.3387 56.846 22.148C57.176 21.9573 57.5757 21.862 58.045 21.862V22.896H57.781C56.659 22.896 56.098 23.5047 56.098 24.722V28H55.097V21.972H56.098V22.951ZM61.3345 28.099C60.8725 28.099 60.4582 28.022 60.0915 27.868C59.7248 27.7067 59.4352 27.4867 59.2225 27.208C59.0098 26.922 58.8925 26.5957 58.8705 26.229H59.9045C59.9338 26.5297 60.0732 26.7753 60.3225 26.966C60.5792 27.1567 60.9128 27.252 61.3235 27.252C61.7048 27.252 62.0055 27.1677 62.2255 26.999C62.4455 26.8303 62.5555 26.6177 62.5555 26.361C62.5555 26.097 62.4382 25.9027 62.2035 25.778C61.9688 25.646 61.6058 25.5177 61.1145 25.393C60.6672 25.2757 60.3005 25.1583 60.0145 25.041C59.7358 24.9163 59.4938 24.7367 59.2885 24.502C59.0905 24.26 58.9915 23.9447 58.9915 23.556C58.9915 23.248 59.0832 22.9657 59.2665 22.709C59.4498 22.4523 59.7102 22.2507 60.0475 22.104C60.3848 21.95 60.7698 21.873 61.2025 21.873C61.8698 21.873 62.4088 22.0417 62.8195 22.379C63.2302 22.7163 63.4502 23.1783 63.4795 23.765H62.4785C62.4565 23.4497 62.3282 23.1967 62.0935 23.006C61.8662 22.8153 61.5582 22.72 61.1695 22.72C60.8102 22.72 60.5242 22.797 60.3115 22.951C60.0988 23.105 59.9925 23.3067 59.9925 23.556C59.9925 23.754 60.0548 23.919 60.1795 24.051C60.3115 24.1757 60.4728 24.2783 60.6635 24.359C60.8615 24.4323 61.1328 24.5167 61.4775 24.612C61.9102 24.7293 62.2622 24.8467 62.5335 24.964C62.8048 25.074 63.0358 25.2427 63.2265 25.47C63.4245 25.6973 63.5272 25.9943 63.5345 26.361C63.5345 26.691 63.4428 26.988 63.2595 27.252C63.0762 27.516 62.8158 27.725 62.4785 27.879C62.1485 28.0257 61.7672 28.099 61.3345 28.099ZM66.1686 22.797V26.35C66.1686 26.6433 66.2309 26.8523 66.3556 26.977C66.4803 27.0943 66.6966 27.153 67.0046 27.153H67.7416V28H66.8396C66.2823 28 65.8643 27.8717 65.5856 27.615C65.3069 27.3583 65.1676 26.9367 65.1676 26.35V22.797H64.3866V21.972H65.1676V20.454H66.1686V21.972H67.7416V22.797H66.1686ZM76.419 26.295H73.075L72.459 28H71.403L74.175 20.377H75.33L78.091 28H77.035L76.419 26.295ZM76.133 25.481L74.747 21.609L73.361 25.481H76.133ZM79.8161 20.993C79.6255 20.993 79.4641 20.927 79.3321 20.795C79.2001 20.663 79.1341 20.5017 79.1341 20.311C79.1341 20.1203 79.2001 19.959 79.3321 19.827C79.4641 19.695 79.6255 19.629 79.8161 19.629C79.9995 19.629 80.1535 19.695 80.2781 19.827C80.4101 19.959 80.4761 20.1203 80.4761 20.311C80.4761 20.5017 80.4101 20.663 80.2781 20.795C80.1535 20.927 79.9995 20.993 79.8161 20.993ZM80.3001 21.972V28H79.2991V21.972H80.3001ZM81.6322 24.964C81.6322 24.348 81.7568 23.809 82.0062 23.347C82.2555 22.8777 82.5965 22.5147 83.0292 22.258C83.4692 22.0013 83.9605 21.873 84.5032 21.873C84.9725 21.873 85.4088 21.983 85.8122 22.203C86.2155 22.4157 86.5235 22.698 86.7362 23.05V19.86H87.7482V28H86.7362V26.867C86.5382 27.2263 86.2448 27.5233 85.8562 27.758C85.4675 27.9853 85.0128 28.099 84.4922 28.099C83.9568 28.099 83.4692 27.967 83.0292 27.703C82.5965 27.439 82.2555 27.0687 82.0062 26.592C81.7568 26.1153 81.6322 25.5727 81.6322 24.964ZM86.7362 24.975C86.7362 24.5203 86.6445 24.1243 86.4612 23.787C86.2778 23.4497 86.0285 23.193 85.7132 23.017C85.4052 22.8337 85.0642 22.742 84.6902 22.742C84.3162 22.742 83.9752 22.83 83.6672 23.006C83.3592 23.182 83.1135 23.4387 82.9302 23.776C82.7468 24.1133 82.6552 24.5093 82.6552 24.964C82.6552 25.426 82.7468 25.8293 82.9302 26.174C83.1135 26.5113 83.3592 26.7717 83.6672 26.955C83.9752 27.131 84.3162 27.219 84.6902 27.219C85.0642 27.219 85.4052 27.131 85.7132 26.955C86.0285 26.7717 86.2778 26.5113 86.4612 26.174C86.6445 25.8293 86.7362 25.4297 86.7362 24.975ZM96.5304 28L93.3734 24.502V28H92.3724V20.333H93.3734V23.886L96.5414 20.333H97.8064L94.3304 24.172L97.8394 28H96.5304ZM99.4744 20.993C99.2837 20.993 99.1224 20.927 98.9904 20.795C98.8584 20.663 98.7924 20.5017 98.7924 20.311C98.7924 20.1203 98.8584 19.959 98.9904 19.827C99.1224 19.695 99.2837 19.629 99.4744 19.629C99.6577 19.629 99.8117 19.695 99.9364 19.827C100.068 19.959 100.134 20.1203 100.134 20.311C100.134 20.5017 100.068 20.663 99.9364 20.795C99.8117 20.927 99.6577 20.993 99.4744 20.993ZM99.9584 21.972V28H98.9574V21.972H99.9584ZM102.885 22.797V26.35C102.885 26.6433 102.948 26.8523 103.072 26.977C103.197 27.0943 103.413 27.153 103.721 27.153H104.458V28H103.556C102.999 28 102.581 27.8717 102.302 27.615C102.024 27.3583 101.884 26.9367 101.884 26.35V22.797H101.103V21.972H101.884V20.454H102.885V21.972H104.458V22.797H102.885Z" fill="white"/>
<path d="M123.112 23.692C123.416 23.74 123.692 23.864 123.94 24.064C124.196 24.264 124.396 24.512 124.54 24.808C124.692 25.104 124.768 25.42 124.768 25.756C124.768 26.18 124.66 26.564 124.444 26.908C124.228 27.244 123.912 27.512 123.496 27.712C123.088 27.904 122.604 28 122.044 28H118.924V19.636H121.924C122.492 19.636 122.976 19.732 123.376 19.924C123.776 20.108 124.076 20.36 124.276 20.68C124.476 21 124.576 21.36 124.576 21.76C124.576 22.256 124.44 22.668 124.168 22.996C123.904 23.316 123.552 23.548 123.112 23.692ZM120.016 23.248H121.852C122.364 23.248 122.76 23.128 123.04 22.888C123.32 22.648 123.46 22.316 123.46 21.892C123.46 21.468 123.32 21.136 123.04 20.896C122.76 20.656 122.356 20.536 121.828 20.536H120.016V23.248ZM121.948 27.1C122.492 27.1 122.916 26.972 123.22 26.716C123.524 26.46 123.676 26.104 123.676 25.648C123.676 25.184 123.516 24.82 123.196 24.556C122.876 24.284 122.448 24.148 121.912 24.148H120.016V27.1H121.948ZM125.875 24.688C125.875 24.016 126.011 23.428 126.283 22.924C126.555 22.412 126.927 22.016 127.399 21.736C127.879 21.456 128.411 21.316 128.995 21.316C129.571 21.316 130.071 21.44 130.495 21.688C130.919 21.936 131.235 22.248 131.443 22.624V21.424H132.547V28H131.443V26.776C131.227 27.16 130.903 27.48 130.471 27.736C130.047 27.984 129.551 28.108 128.983 28.108C128.399 28.108 127.871 27.964 127.399 27.676C126.927 27.388 126.555 26.984 126.283 26.464C126.011 25.944 125.875 25.352 125.875 24.688ZM131.443 24.7C131.443 24.204 131.343 23.772 131.143 23.404C130.943 23.036 130.671 22.756 130.327 22.564C129.991 22.364 129.619 22.264 129.211 22.264C128.803 22.264 128.431 22.36 128.095 22.552C127.759 22.744 127.491 23.024 127.291 23.392C127.091 23.76 126.991 24.192 126.991 24.688C126.991 25.192 127.091 25.632 127.291 26.008C127.491 26.376 127.759 26.66 128.095 26.86C128.431 27.052 128.803 27.148 129.211 27.148C129.619 27.148 129.991 27.052 130.327 26.86C130.671 26.66 130.943 26.376 131.143 26.008C131.343 25.632 131.443 25.196 131.443 24.7ZM137.597 21.304C138.397 21.304 139.045 21.548 139.541 22.036C140.037 22.516 140.285 23.212 140.285 24.124V28H139.205V24.28C139.205 23.624 139.041 23.124 138.713 22.78C138.385 22.428 137.937 22.252 137.369 22.252C136.793 22.252 136.333 22.432 135.989 22.792C135.653 23.152 135.485 23.676 135.485 24.364V28H134.393V21.424H135.485V22.36C135.701 22.024 135.993 21.764 136.361 21.58C136.737 21.396 137.149 21.304 137.597 21.304ZM144.781 21.316C145.349 21.316 145.845 21.44 146.269 21.688C146.701 21.936 147.021 22.248 147.229 22.624V21.424H148.333V28.144C148.333 28.744 148.205 29.276 147.949 29.74C147.693 30.212 147.325 30.58 146.845 30.844C146.373 31.108 145.821 31.24 145.189 31.24C144.325 31.24 143.605 31.036 143.029 30.628C142.453 30.22 142.113 29.664 142.009 28.96H143.089C143.209 29.36 143.457 29.68 143.833 29.92C144.209 30.168 144.661 30.292 145.189 30.292C145.789 30.292 146.277 30.104 146.653 29.728C147.037 29.352 147.229 28.824 147.229 28.144V26.764C147.013 27.148 146.693 27.468 146.269 27.724C145.845 27.98 145.349 28.108 144.781 28.108C144.197 28.108 143.665 27.964 143.185 27.676C142.713 27.388 142.341 26.984 142.069 26.464C141.797 25.944 141.661 25.352 141.661 24.688C141.661 24.016 141.797 23.428 142.069 22.924C142.341 22.412 142.713 22.016 143.185 21.736C143.665 21.456 144.197 21.316 144.781 21.316ZM147.229 24.7C147.229 24.204 147.129 23.772 146.929 23.404C146.729 23.036 146.457 22.756 146.113 22.564C145.777 22.364 145.405 22.264 144.997 22.264C144.589 22.264 144.217 22.36 143.881 22.552C143.545 22.744 143.277 23.024 143.077 23.392C142.877 23.76 142.777 24.192 142.777 24.688C142.777 25.192 142.877 25.632 143.077 26.008C143.277 26.376 143.545 26.66 143.881 26.86C144.217 27.052 144.589 27.148 144.997 27.148C145.405 27.148 145.777 27.052 146.113 26.86C146.457 26.66 146.729 26.376 146.929 26.008C147.129 25.632 147.229 25.196 147.229 24.7ZM156.178 24.46C156.178 24.668 156.166 24.888 156.142 25.12H150.886C150.926 25.768 151.146 26.276 151.546 26.644C151.954 27.004 152.446 27.184 153.022 27.184C153.494 27.184 153.886 27.076 154.198 26.86C154.518 26.636 154.742 26.34 154.87 25.972H156.046C155.87 26.604 155.518 27.12 154.99 27.52C154.462 27.912 153.806 28.108 153.022 28.108C152.398 28.108 151.838 27.968 151.342 27.688C150.854 27.408 150.47 27.012 150.19 26.5C149.91 25.98 149.77 25.38 149.77 24.7C149.77 24.02 149.906 23.424 150.178 22.912C150.45 22.4 150.83 22.008 151.318 21.736C151.814 21.456 152.382 21.316 153.022 21.316C153.646 21.316 154.198 21.452 154.678 21.724C155.158 21.996 155.526 22.372 155.782 22.852C156.046 23.324 156.178 23.86 156.178 24.46ZM155.05 24.232C155.05 23.816 154.958 23.46 154.774 23.164C154.59 22.86 154.338 22.632 154.018 22.48C153.706 22.32 153.358 22.24 152.974 22.24C152.422 22.24 151.95 22.416 151.558 22.768C151.174 23.12 150.954 23.608 150.898 24.232H155.05ZM158.711 22.492C158.903 22.116 159.175 21.824 159.527 21.616C159.887 21.408 160.323 21.304 160.835 21.304V22.432H160.547C159.323 22.432 158.711 23.096 158.711 24.424V28H157.619V21.424H158.711V22.492ZM169.483 23.692C169.787 23.74 170.063 23.864 170.311 24.064C170.567 24.264 170.767 24.512 170.911 24.808C171.063 25.104 171.139 25.42 171.139 25.756C171.139 26.18 171.031 26.564 170.815 26.908C170.599 27.244 170.283 27.512 169.867 27.712C169.459 27.904 168.975 28 168.415 28H165.295V19.636H168.295C168.863 19.636 169.347 19.732 169.747 19.924C170.147 20.108 170.447 20.36 170.647 20.68C170.847 21 170.947 21.36 170.947 21.76C170.947 22.256 170.811 22.668 170.539 22.996C170.275 23.316 169.923 23.548 169.483 23.692ZM166.387 23.248H168.223C168.735 23.248 169.131 23.128 169.411 22.888C169.691 22.648 169.831 22.316 169.831 21.892C169.831 21.468 169.691 21.136 169.411 20.896C169.131 20.656 168.727 20.536 168.199 20.536H166.387V23.248ZM168.319 27.1C168.863 27.1 169.287 26.972 169.591 26.716C169.895 26.46 170.047 26.104 170.047 25.648C170.047 25.184 169.887 24.82 169.567 24.556C169.247 24.284 168.819 24.148 168.283 24.148H166.387V27.1H168.319ZM175.522 28.108C174.906 28.108 174.346 27.968 173.842 27.688C173.346 27.408 172.954 27.012 172.666 26.5C172.386 25.98 172.246 25.38 172.246 24.7C172.246 24.028 172.39 23.436 172.678 22.924C172.974 22.404 173.374 22.008 173.878 21.736C174.382 21.456 174.946 21.316 175.57 21.316C176.194 21.316 176.758 21.456 177.262 21.736C177.766 22.008 178.162 22.4 178.45 22.912C178.746 23.424 178.894 24.02 178.894 24.7C178.894 25.38 178.742 25.98 178.438 26.5C178.142 27.012 177.738 27.408 177.226 27.688C176.714 27.968 176.146 28.108 175.522 28.108ZM175.522 27.148C175.914 27.148 176.282 27.056 176.626 26.872C176.97 26.688 177.246 26.412 177.454 26.044C177.67 25.676 177.778 25.228 177.778 24.7C177.778 24.172 177.674 23.724 177.466 23.356C177.258 22.988 176.986 22.716 176.65 22.54C176.314 22.356 175.95 22.264 175.558 22.264C175.158 22.264 174.79 22.356 174.454 22.54C174.126 22.716 173.862 22.988 173.662 23.356C173.462 23.724 173.362 24.172 173.362 24.7C173.362 25.236 173.458 25.688 173.65 26.056C173.85 26.424 174.114 26.7 174.442 26.884C174.77 27.06 175.13 27.148 175.522 27.148ZM181.662 22.324V26.2C181.662 26.52 181.73 26.748 181.866 26.884C182.002 27.012 182.238 27.076 182.574 27.076H183.378V28H182.394C181.786 28 181.33 27.86 181.026 27.58C180.722 27.3 180.57 26.84 180.57 26.2V22.324H179.718V21.424H180.57V19.768H181.662V21.424H183.378V22.324H181.662ZM186.033 22.324V26.2C186.033 26.52 186.101 26.748 186.237 26.884C186.373 27.012 186.609 27.076 186.945 27.076H187.749V28H186.765C186.157 28 185.701 27.86 185.397 27.58C185.093 27.3 184.941 26.84 184.941 26.2V22.324H184.089V21.424H184.941V19.768H186.033V21.424H187.749V22.324H186.033ZM190.164 19.12V28H189.072V19.12H190.164ZM198.026 24.46C198.026 24.668 198.014 24.888 197.99 25.12H192.734C192.774 25.768 192.994 26.276 193.394 26.644C193.802 27.004 194.294 27.184 194.87 27.184C195.342 27.184 195.734 27.076 196.046 26.86C196.366 26.636 196.59 26.34 196.718 25.972H197.894C197.718 26.604 197.366 27.12 196.838 27.52C196.31 27.912 195.654 28.108 194.87 28.108C194.246 28.108 193.686 27.968 193.19 27.688C192.702 27.408 192.318 27.012 192.038 26.5C191.758 25.98 191.618 25.38 191.618 24.7C191.618 24.02 191.754 23.424 192.026 22.912C192.298 22.4 192.678 22.008 193.166 21.736C193.662 21.456 194.23 21.316 194.87 21.316C195.494 21.316 196.046 21.452 196.526 21.724C197.006 21.996 197.374 22.372 197.63 22.852C197.894 23.324 198.026 23.86 198.026 24.46ZM196.898 24.232C196.898 23.816 196.806 23.46 196.622 23.164C196.438 22.86 196.186 22.632 195.866 22.48C195.554 22.32 195.206 22.24 194.822 22.24C194.27 22.24 193.798 22.416 193.406 22.768C193.022 23.12 192.802 23.608 192.746 24.232H196.898Z" fill="white"/>
<path d="M35.587 27.4426C35.9434 27.4426 36.2656 27.1641 36.2656 26.7534C36.2656 26.3496 35.9434 26.0711 35.587 26.0711H27.7995C27.5116 26.0711 27.3265 25.8623 27.2853 25.549L27.1757 24.8389H35.6624C36.7455 24.8389 37.3213 24.1775 37.479 23.0776L37.9726 19.7151C37.9863 19.6176 38 19.4993 38 19.4157C38 18.9632 37.7052 18.6499 37.1637 18.6499H26.3051L26.2091 17.9746C26.12 17.3272 25.8458 17 25.0368 17H22.7335C22.3359 17 22 17.3411 22 17.7519C22 18.1556 22.3359 18.4968 22.7335 18.4968H24.7695L25.8046 25.6952C25.9623 26.7812 26.5381 27.4426 27.6213 27.4426H35.587ZM28.1902 31C28.8826 31 29.4379 30.4361 29.4379 29.733C29.4379 29.0298 28.8826 28.4659 28.1902 28.4659C27.4979 28.4659 26.9426 29.0298 26.9426 29.733C26.9426 30.4361 27.4979 31 28.1902 31ZM34.4764 31C35.1688 31 35.7241 30.4361 35.7241 29.733C35.7241 29.0298 35.1688 28.4659 34.4764 28.4659C33.7841 28.4659 33.2219 29.0298 33.2219 29.733C33.2219 30.4361 33.7841 31 34.4764 31Z" fill="white"/>
<path d="M249.112 23.692C249.416 23.74 249.692 23.864 249.94 24.064C250.196 24.264 250.396 24.512 250.54 24.808C250.692 25.104 250.768 25.42 250.768 25.756C250.768 26.18 250.66 26.564 250.444 26.908C250.228 27.244 249.912 27.512 249.496 27.712C249.088 27.904 248.604 28 248.044 28H244.924V19.636H247.924C248.492 19.636 248.976 19.732 249.376 19.924C249.776 20.108 250.076 20.36 250.276 20.68C250.476 21 250.576 21.36 250.576 21.76C250.576 22.256 250.44 22.668 250.168 22.996C249.904 23.316 249.552 23.548 249.112 23.692ZM246.016 23.248H247.852C248.364 23.248 248.76 23.128 249.04 22.888C249.32 22.648 249.46 22.316 249.46 21.892C249.46 21.468 249.32 21.136 249.04 20.896C248.76 20.656 248.356 20.536 247.828 20.536H246.016V23.248ZM247.948 27.1C248.492 27.1 248.916 26.972 249.22 26.716C249.524 26.46 249.676 26.104 249.676 25.648C249.676 25.184 249.516 24.82 249.196 24.556C248.876 24.284 248.448 24.148 247.912 24.148H246.016V27.1H247.948ZM253.375 22.492C253.567 22.116 253.839 21.824 254.191 21.616C254.551 21.408 254.987 21.304 255.499 21.304V22.432H255.211C253.987 22.432 253.375 23.096 253.375 24.424V28H252.283V21.424H253.375V22.492ZM257.324 20.356C257.116 20.356 256.94 20.284 256.796 20.14C256.652 19.996 256.58 19.82 256.58 19.612C256.58 19.404 256.652 19.228 256.796 19.084C256.94 18.94 257.116 18.868 257.324 18.868C257.524 18.868 257.692 18.94 257.828 19.084C257.972 19.228 258.044 19.404 258.044 19.612C258.044 19.82 257.972 19.996 257.828 20.14C257.692 20.284 257.524 20.356 257.324 20.356ZM257.852 21.424V28H256.76V21.424H257.852ZM259.305 24.688C259.305 24.016 259.441 23.428 259.713 22.924C259.985 22.412 260.357 22.016 260.829 21.736C261.309 21.456 261.841 21.316 262.425 21.316C263.001 21.316 263.501 21.44 263.925 21.688C264.349 21.936 264.665 22.248 264.873 22.624V21.424H265.977V28H264.873V26.776C264.657 27.16 264.333 27.48 263.901 27.736C263.477 27.984 262.981 28.108 262.413 28.108C261.829 28.108 261.301 27.964 260.829 27.676C260.357 27.388 259.985 26.984 259.713 26.464C259.441 25.944 259.305 25.352 259.305 24.688ZM264.873 24.7C264.873 24.204 264.773 23.772 264.573 23.404C264.373 23.036 264.101 22.756 263.757 22.564C263.421 22.364 263.049 22.264 262.641 22.264C262.233 22.264 261.861 22.36 261.525 22.552C261.189 22.744 260.921 23.024 260.721 23.392C260.521 23.76 260.421 24.192 260.421 24.688C260.421 25.192 260.521 25.632 260.721 26.008C260.921 26.376 261.189 26.66 261.525 26.86C261.861 27.052 262.233 27.148 262.641 27.148C263.049 27.148 263.421 27.052 263.757 26.86C264.101 26.66 264.373 26.376 264.573 26.008C264.773 25.632 264.873 25.196 264.873 24.7ZM271.026 21.304C271.826 21.304 272.474 21.548 272.97 22.036C273.466 22.516 273.714 23.212 273.714 24.124V28H272.634V24.28C272.634 23.624 272.47 23.124 272.142 22.78C271.814 22.428 271.366 22.252 270.798 22.252C270.222 22.252 269.762 22.432 269.418 22.792C269.082 23.152 268.914 23.676 268.914 24.364V28H267.822V21.424H268.914V22.36C269.13 22.024 269.422 21.764 269.79 21.58C270.166 21.396 270.578 21.304 271.026 21.304ZM281.349 28.084C280.797 28.084 280.301 27.988 279.861 27.796C279.429 27.596 279.089 27.324 278.841 26.98C278.593 26.628 278.465 26.224 278.457 25.768H279.621C279.661 26.16 279.821 26.492 280.101 26.764C280.389 27.028 280.805 27.16 281.349 27.16C281.869 27.16 282.277 27.032 282.573 26.776C282.877 26.512 283.029 26.176 283.029 25.768C283.029 25.448 282.941 25.188 282.765 24.988C282.589 24.788 282.369 24.636 282.105 24.532C281.841 24.428 281.485 24.316 281.037 24.196C280.485 24.052 280.041 23.908 279.705 23.764C279.377 23.62 279.093 23.396 278.853 23.092C278.621 22.78 278.505 22.364 278.505 21.844C278.505 21.388 278.621 20.984 278.853 20.632C279.085 20.28 279.409 20.008 279.825 19.816C280.249 19.624 280.733 19.528 281.277 19.528C282.061 19.528 282.701 19.724 283.197 20.116C283.701 20.508 283.985 21.028 284.049 21.676H282.849C282.809 21.356 282.641 21.076 282.345 20.836C282.049 20.588 281.657 20.464 281.169 20.464C280.713 20.464 280.341 20.584 280.053 20.824C279.765 21.056 279.621 21.384 279.621 21.808C279.621 22.112 279.705 22.36 279.873 22.552C280.049 22.744 280.261 22.892 280.509 22.996C280.765 23.092 281.121 23.204 281.577 23.332C282.129 23.484 282.573 23.636 282.909 23.788C283.245 23.932 283.533 24.16 283.773 24.472C284.013 24.776 284.133 25.192 284.133 25.72C284.133 26.128 284.025 26.512 283.809 26.872C283.593 27.232 283.273 27.524 282.849 27.748C282.425 27.972 281.925 28.084 281.349 28.084ZM285.332 24.7C285.332 24.02 285.468 23.428 285.74 22.924C286.012 22.412 286.388 22.016 286.868 21.736C287.356 21.456 287.912 21.316 288.536 21.316C289.344 21.316 290.008 21.512 290.528 21.904C291.056 22.296 291.404 22.84 291.572 23.536H290.396C290.284 23.136 290.064 22.82 289.736 22.588C289.416 22.356 289.016 22.24 288.536 22.24C287.912 22.24 287.408 22.456 287.024 22.888C286.64 23.312 286.448 23.916 286.448 24.7C286.448 25.492 286.64 26.104 287.024 26.536C287.408 26.968 287.912 27.184 288.536 27.184C289.016 27.184 289.416 27.072 289.736 26.848C290.056 26.624 290.276 26.304 290.396 25.888H291.572C291.396 26.56 291.044 27.1 290.516 27.508C289.988 27.908 289.328 28.108 288.536 28.108C287.912 28.108 287.356 27.968 286.868 27.688C286.388 27.408 286.012 27.012 285.74 26.5C285.468 25.988 285.332 25.388 285.332 24.7ZM296.293 21.304C296.789 21.304 297.237 21.412 297.637 21.628C298.037 21.836 298.349 22.152 298.573 22.576C298.805 23 298.921 23.516 298.921 24.124V28H297.841V24.28C297.841 23.624 297.677 23.124 297.349 22.78C297.021 22.428 296.573 22.252 296.005 22.252C295.429 22.252 294.969 22.432 294.625 22.792C294.289 23.152 294.121 23.676 294.121 24.364V28H293.029V19.12H294.121V22.36C294.337 22.024 294.633 21.764 295.009 21.58C295.393 21.396 295.821 21.304 296.293 21.304ZM306.537 21.424V28H305.445V27.028C305.237 27.364 304.945 27.628 304.569 27.82C304.201 28.004 303.793 28.096 303.345 28.096C302.833 28.096 302.373 27.992 301.965 27.784C301.557 27.568 301.233 27.248 300.993 26.824C300.761 26.4 300.645 25.884 300.645 25.276V21.424H301.725V25.132C301.725 25.78 301.889 26.28 302.217 26.632C302.545 26.976 302.993 27.148 303.561 27.148C304.145 27.148 304.605 26.968 304.941 26.608C305.277 26.248 305.445 25.724 305.445 25.036V21.424H306.537ZM309.473 19.12V28H308.381V19.12H309.473ZM312.666 22.324V26.2C312.666 26.52 312.734 26.748 312.87 26.884C313.006 27.012 313.242 27.076 313.578 27.076H314.382V28H313.398C312.79 28 312.334 27.86 312.03 27.58C311.726 27.3 311.574 26.84 311.574 26.2V22.324H310.722V21.424H311.574V19.768H312.666V21.424H314.382V22.324H312.666ZM316.521 27.1H319.749V28H315.273V27.1L318.465 22.312H315.297V21.424H319.725V22.312L316.521 27.1Z" fill="white"/>
<path d="M233.822 30.3334C235.246 30.3334 236 29.5795 236 28.1562V21.3257C236 19.9024 235.246 19.142 233.822 19.142H232.179C231.683 19.142 231.509 19.0575 231.186 18.726L230.677 18.1931C230.336 17.8357 229.988 17.6667 229.337 17.6667H226.637C225.986 17.6667 225.638 17.8357 225.297 18.1931L224.788 18.726C224.466 19.0575 224.292 19.142 223.789 19.142H222.184C220.76 19.142 220 19.9024 220 21.3257V28.1562C220 29.5795 220.76 30.3334 222.184 30.3334H233.822ZM228.003 28.2212C226.089 28.2212 224.549 26.6744 224.549 24.7312C224.549 22.7944 226.089 21.2412 228.003 21.2412C229.917 21.2412 231.451 22.7944 231.451 24.7312C231.451 26.6744 229.917 28.2212 228.003 28.2212ZM232.739 23.2299C232.256 23.2299 231.857 22.8399 231.857 22.346C231.857 21.8716 232.263 21.4621 232.739 21.4621C233.21 21.4621 233.616 21.8716 233.616 22.346C233.616 22.8334 233.216 23.2234 232.739 23.2299ZM228.003 26.9278C229.208 26.9278 230.175 25.953 230.175 24.7312C230.175 23.5158 229.208 22.5345 228.003 22.5345C226.798 22.5345 225.832 23.5158 225.832 24.7312C225.832 25.953 226.805 26.9278 228.003 26.9278Z" fill="white"/>
<path d="M370.016 27.112H372.944V28H368.924V19.636H370.016V27.112ZM380.104 24.46C380.104 24.668 380.092 24.888 380.068 25.12H374.812C374.852 25.768 375.072 26.276 375.472 26.644C375.88 27.004 376.372 27.184 376.948 27.184C377.42 27.184 377.812 27.076 378.124 26.86C378.444 26.636 378.668 26.34 378.796 25.972H379.972C379.796 26.604 379.444 27.12 378.916 27.52C378.388 27.912 377.732 28.108 376.948 28.108C376.324 28.108 375.764 27.968 375.268 27.688C374.78 27.408 374.396 27.012 374.116 26.5C373.836 25.98 373.696 25.38 373.696 24.7C373.696 24.02 373.832 23.424 374.104 22.912C374.376 22.4 374.756 22.008 375.244 21.736C375.74 21.456 376.308 21.316 376.948 21.316C377.572 21.316 378.124 21.452 378.604 21.724C379.084 21.996 379.452 22.372 379.708 22.852C379.972 23.324 380.104 23.86 380.104 24.46ZM378.976 24.232C378.976 23.816 378.884 23.46 378.7 23.164C378.516 22.86 378.264 22.632 377.944 22.48C377.632 22.32 377.284 22.24 376.9 22.24C376.348 22.24 375.876 22.416 375.484 22.768C375.1 23.12 374.88 23.608 374.824 24.232H378.976ZM381.137 24.688C381.137 24.016 381.273 23.428 381.545 22.924C381.817 22.412 382.189 22.016 382.661 21.736C383.141 21.456 383.673 21.316 384.257 21.316C384.833 21.316 385.333 21.44 385.757 21.688C386.181 21.936 386.497 22.248 386.705 22.624V21.424H387.809V28H386.705V26.776C386.489 27.16 386.165 27.48 385.733 27.736C385.309 27.984 384.813 28.108 384.245 28.108C383.661 28.108 383.133 27.964 382.661 27.676C382.189 27.388 381.817 26.984 381.545 26.464C381.273 25.944 381.137 25.352 381.137 24.688ZM386.705 24.7C386.705 24.204 386.605 23.772 386.405 23.404C386.205 23.036 385.933 22.756 385.589 22.564C385.253 22.364 384.881 22.264 384.473 22.264C384.065 22.264 383.693 22.36 383.357 22.552C383.021 22.744 382.753 23.024 382.553 23.392C382.353 23.76 382.253 24.192 382.253 24.688C382.253 25.192 382.353 25.632 382.553 26.008C382.753 26.376 383.021 26.66 383.357 26.86C383.693 27.052 384.065 27.148 384.473 27.148C384.881 27.148 385.253 27.052 385.589 26.86C385.933 26.66 386.205 26.376 386.405 26.008C386.605 25.632 386.705 25.196 386.705 24.7ZM392.918 21.304C393.414 21.304 393.862 21.412 394.262 21.628C394.662 21.836 394.974 22.152 395.198 22.576C395.43 23 395.546 23.516 395.546 24.124V28H394.466V24.28C394.466 23.624 394.302 23.124 393.974 22.78C393.646 22.428 393.198 22.252 392.63 22.252C392.054 22.252 391.594 22.432 391.25 22.792C390.914 23.152 390.746 23.676 390.746 24.364V28H389.654V19.12H390.746V22.36C390.962 22.024 391.258 21.764 391.634 21.58C392.018 21.396 392.446 21.304 392.918 21.304ZM403.181 28.084C402.629 28.084 402.133 27.988 401.693 27.796C401.261 27.596 400.921 27.324 400.673 26.98C400.425 26.628 400.297 26.224 400.289 25.768H401.453C401.493 26.16 401.653 26.492 401.933 26.764C402.221 27.028 402.637 27.16 403.181 27.16C403.701 27.16 404.109 27.032 404.405 26.776C404.709 26.512 404.861 26.176 404.861 25.768C404.861 25.448 404.773 25.188 404.597 24.988C404.421 24.788 404.201 24.636 403.937 24.532C403.673 24.428 403.317 24.316 402.869 24.196C402.317 24.052 401.873 23.908 401.537 23.764C401.209 23.62 400.925 23.396 400.685 23.092C400.453 22.78 400.337 22.364 400.337 21.844C400.337 21.388 400.453 20.984 400.685 20.632C400.917 20.28 401.241 20.008 401.657 19.816C402.081 19.624 402.565 19.528 403.109 19.528C403.893 19.528 404.533 19.724 405.029 20.116C405.533 20.508 405.817 21.028 405.881 21.676H404.681C404.641 21.356 404.473 21.076 404.177 20.836C403.881 20.588 403.489 20.464 403.001 20.464C402.545 20.464 402.173 20.584 401.885 20.824C401.597 21.056 401.453 21.384 401.453 21.808C401.453 22.112 401.537 22.36 401.705 22.552C401.881 22.744 402.093 22.892 402.341 22.996C402.597 23.092 402.953 23.204 403.409 23.332C403.961 23.484 404.405 23.636 404.741 23.788C405.077 23.932 405.365 24.16 405.605 24.472C405.845 24.776 405.965 25.192 405.965 25.72C405.965 26.128 405.857 26.512 405.641 26.872C405.425 27.232 405.105 27.524 404.681 27.748C404.257 27.972 403.757 28.084 403.181 28.084ZM408.904 22.324V26.2C408.904 26.52 408.972 26.748 409.108 26.884C409.244 27.012 409.48 27.076 409.816 27.076H410.62V28H409.636C409.028 28 408.572 27.86 408.268 27.58C407.964 27.3 407.812 26.84 407.812 26.2V22.324H406.96V21.424H407.812V19.768H408.904V21.424H410.62V22.324H408.904ZM414.812 28.108C414.196 28.108 413.636 27.968 413.132 27.688C412.636 27.408 412.244 27.012 411.956 26.5C411.676 25.98 411.536 25.38 411.536 24.7C411.536 24.028 411.68 23.436 411.968 22.924C412.264 22.404 412.664 22.008 413.168 21.736C413.672 21.456 414.236 21.316 414.86 21.316C415.484 21.316 416.048 21.456 416.552 21.736C417.056 22.008 417.452 22.4 417.74 22.912C418.036 23.424 418.184 24.02 418.184 24.7C418.184 25.38 418.032 25.98 417.728 26.5C417.432 27.012 417.028 27.408 416.516 27.688C416.004 27.968 415.436 28.108 414.812 28.108ZM414.812 27.148C415.204 27.148 415.572 27.056 415.916 26.872C416.26 26.688 416.536 26.412 416.744 26.044C416.96 25.676 417.068 25.228 417.068 24.7C417.068 24.172 416.964 23.724 416.756 23.356C416.548 22.988 416.276 22.716 415.94 22.54C415.604 22.356 415.24 22.264 414.848 22.264C414.448 22.264 414.08 22.356 413.744 22.54C413.416 22.716 413.152 22.988 412.952 23.356C412.752 23.724 412.652 24.172 412.652 24.7C412.652 25.236 412.748 25.688 412.94 26.056C413.14 26.424 413.404 26.7 413.732 26.884C414.06 27.06 414.42 27.148 414.812 27.148ZM422.295 22.324H420.915V28H419.823V22.324H418.971V21.424H419.823V20.956C419.823 20.22 420.011 19.684 420.387 19.348C420.771 19.004 421.383 18.832 422.223 18.832V19.744C421.743 19.744 421.403 19.84 421.203 20.032C421.011 20.216 420.915 20.524 420.915 20.956V21.424H422.295V22.324ZM426.245 22.324H424.865V28H423.773V22.324H422.921V21.424H423.773V20.956C423.773 20.22 423.961 19.684 424.337 19.348C424.721 19.004 425.333 18.832 426.173 18.832V19.744C425.693 19.744 425.353 19.84 425.153 20.032C424.961 20.216 424.865 20.524 424.865 20.956V21.424H426.245V22.324Z" fill="white"/>
<g clip-path="url(#clip0_0_239)">
<path d="M352.004 23.7752C353.917 23.7752 355.509 22.0474 355.509 19.8347C355.509 17.6749 353.908 16 352.004 16C350.101 16 348.483 17.7014 348.491 19.8523C348.491 22.0474 350.092 23.7752 352.004 23.7752ZM357.724 32C358.728 32 359.333 31.5063 359.333 30.6953C359.333 28.4298 356.487 25.3267 351.996 25.3267C347.513 25.3267 344.667 28.4298 344.667 30.6953C344.667 31.5063 345.272 32 346.276 32H357.724Z" fill="white"/>
</g>
<path d="M472.516 22.812C472.516 21.996 472.7 21.264 473.068 20.616C473.436 19.96 473.936 19.448 474.568 19.08C475.208 18.712 475.916 18.528 476.692 18.528C477.604 18.528 478.4 18.748 479.08 19.188C479.76 19.628 480.256 20.252 480.568 21.06H479.26C479.028 20.556 478.692 20.168 478.252 19.896C477.82 19.624 477.3 19.488 476.692 19.488C476.108 19.488 475.584 19.624 475.12 19.896C474.656 20.168 474.292 20.556 474.028 21.06C473.764 21.556 473.632 22.14 473.632 22.812C473.632 23.476 473.764 24.06 474.028 24.564C474.292 25.06 474.656 25.444 475.12 25.716C475.584 25.988 476.108 26.124 476.692 26.124C477.3 26.124 477.82 25.992 478.252 25.728C478.692 25.456 479.028 25.068 479.26 24.564H480.568C480.256 25.364 479.76 25.984 479.08 26.424C478.4 26.856 477.604 27.072 476.692 27.072C475.916 27.072 475.208 26.892 474.568 26.532C473.936 26.164 473.436 25.656 473.068 25.008C472.7 24.36 472.516 23.628 472.516 22.812ZM481.786 23.688C481.786 23.016 481.922 22.428 482.194 21.924C482.466 21.412 482.838 21.016 483.31 20.736C483.79 20.456 484.322 20.316 484.906 20.316C485.482 20.316 485.982 20.44 486.406 20.688C486.83 20.936 487.146 21.248 487.354 21.624V20.424H488.458V27H487.354V25.776C487.138 26.16 486.814 26.48 486.382 26.736C485.958 26.984 485.462 27.108 484.894 27.108C484.31 27.108 483.782 26.964 483.31 26.676C482.838 26.388 482.466 25.984 482.194 25.464C481.922 24.944 481.786 24.352 481.786 23.688ZM487.354 23.7C487.354 23.204 487.254 22.772 487.054 22.404C486.854 22.036 486.582 21.756 486.238 21.564C485.902 21.364 485.53 21.264 485.122 21.264C484.714 21.264 484.342 21.36 484.006 21.552C483.67 21.744 483.402 22.024 483.202 22.392C483.002 22.76 482.902 23.192 482.902 23.688C482.902 24.192 483.002 24.632 483.202 25.008C483.402 25.376 483.67 25.66 484.006 25.86C484.342 26.052 484.714 26.148 485.122 26.148C485.53 26.148 485.902 26.052 486.238 25.86C486.582 25.66 486.854 25.376 487.054 25.008C487.254 24.632 487.354 24.196 487.354 23.7ZM491.635 21.324V25.2C491.635 25.52 491.703 25.748 491.839 25.884C491.975 26.012 492.211 26.076 492.547 26.076H493.351V27H492.367C491.759 27 491.303 26.86 490.999 26.58C490.695 26.3 490.543 25.84 490.543 25.2V21.324H489.691V20.424H490.543V18.768H491.635V20.424H493.351V21.324H491.635ZM494.266 23.688C494.266 23.016 494.402 22.428 494.674 21.924C494.946 21.412 495.318 21.016 495.79 20.736C496.27 20.456 496.802 20.316 497.386 20.316C497.962 20.316 498.462 20.44 498.886 20.688C499.31 20.936 499.626 21.248 499.834 21.624V20.424H500.938V27H499.834V25.776C499.618 26.16 499.294 26.48 498.862 26.736C498.438 26.984 497.942 27.108 497.374 27.108C496.79 27.108 496.262 26.964 495.79 26.676C495.318 26.388 494.946 25.984 494.674 25.464C494.402 24.944 494.266 24.352 494.266 23.688ZM499.834 23.7C499.834 23.204 499.734 22.772 499.534 22.404C499.334 22.036 499.062 21.756 498.718 21.564C498.382 21.364 498.01 21.264 497.602 21.264C497.194 21.264 496.822 21.36 496.486 21.552C496.15 21.744 495.882 22.024 495.682 22.392C495.482 22.76 495.382 23.192 495.382 23.688C495.382 24.192 495.482 24.632 495.682 25.008C495.882 25.376 496.15 25.66 496.486 25.86C496.822 26.052 497.194 26.148 497.602 26.148C498.01 26.148 498.382 26.052 498.718 25.86C499.062 25.66 499.334 25.376 499.534 25.008C499.734 24.632 499.834 24.196 499.834 23.7ZM503.875 18.12V27H502.783V18.12H503.875ZM506.301 19.356C506.093 19.356 505.917 19.284 505.773 19.14C505.629 18.996 505.557 18.82 505.557 18.612C505.557 18.404 505.629 18.228 505.773 18.084C505.917 17.94 506.093 17.868 506.301 17.868C506.501 17.868 506.669 17.94 506.805 18.084C506.949 18.228 507.021 18.404 507.021 18.612C507.021 18.82 506.949 18.996 506.805 19.14C506.669 19.284 506.501 19.356 506.301 19.356ZM506.829 20.424V27H505.737V20.424H506.829ZM511.894 20.304C512.694 20.304 513.342 20.548 513.838 21.036C514.334 21.516 514.582 22.212 514.582 23.124V27H513.502V23.28C513.502 22.624 513.338 22.124 513.01 21.78C512.682 21.428 512.234 21.252 511.666 21.252C511.09 21.252 510.63 21.432 510.286 21.792C509.95 22.152 509.782 22.676 509.782 23.364V27H508.69V20.424H509.782V21.36C509.998 21.024 510.29 20.764 510.658 20.58C511.034 20.396 511.446 20.304 511.894 20.304ZM515.957 23.688C515.957 23.016 516.093 22.428 516.365 21.924C516.637 21.412 517.009 21.016 517.481 20.736C517.961 20.456 518.493 20.316 519.077 20.316C519.653 20.316 520.153 20.44 520.577 20.688C521.001 20.936 521.317 21.248 521.525 21.624V20.424H522.629V27H521.525V25.776C521.309 26.16 520.985 26.48 520.553 26.736C520.129 26.984 519.633 27.108 519.065 27.108C518.481 27.108 517.953 26.964 517.481 26.676C517.009 26.388 516.637 25.984 516.365 25.464C516.093 24.944 515.957 24.352 515.957 23.688ZM521.525 23.7C521.525 23.204 521.425 22.772 521.225 22.404C521.025 22.036 520.753 21.756 520.409 21.564C520.073 21.364 519.701 21.264 519.293 21.264C518.885 21.264 518.513 21.36 518.177 21.552C517.841 21.744 517.573 22.024 517.373 22.392C517.173 22.76 517.073 23.192 517.073 23.688C517.073 24.192 517.173 24.632 517.373 25.008C517.573 25.376 517.841 25.66 518.177 25.86C518.513 26.052 518.885 26.148 519.293 26.148C519.701 26.148 520.073 26.052 520.409 25.86C520.753 25.66 521.025 25.376 521.225 25.008C521.425 24.632 521.525 24.196 521.525 23.7ZM525.603 25.488L524.259 28.716H523.527L524.403 25.488H525.603ZM529.645 22.812C529.645 21.996 529.829 21.264 530.197 20.616C530.565 19.96 531.065 19.448 531.697 19.08C532.337 18.712 533.045 18.528 533.821 18.528C534.733 18.528 535.529 18.748 536.209 19.188C536.889 19.628 537.385 20.252 537.697 21.06H536.389C536.157 20.556 535.821 20.168 535.381 19.896C534.949 19.624 534.429 19.488 533.821 19.488C533.237 19.488 532.713 19.624 532.249 19.896C531.785 20.168 531.421 20.556 531.157 21.06C530.893 21.556 530.761 22.14 530.761 22.812C530.761 23.476 530.893 24.06 531.157 24.564C531.421 25.06 531.785 25.444 532.249 25.716C532.713 25.988 533.237 26.124 533.821 26.124C534.429 26.124 534.949 25.992 535.381 25.728C535.821 25.456 536.157 25.068 536.389 24.564H537.697C537.385 25.364 536.889 25.984 536.209 26.424C535.529 26.856 534.733 27.072 533.821 27.072C533.045 27.072 532.337 26.892 531.697 26.532C531.065 26.164 530.565 25.656 530.197 25.008C529.829 24.36 529.645 23.628 529.645 22.812ZM538.914 23.688C538.914 23.016 539.05 22.428 539.322 21.924C539.594 21.412 539.966 21.016 540.438 20.736C540.918 20.456 541.45 20.316 542.034 20.316C542.61 20.316 543.11 20.44 543.534 20.688C543.958 20.936 544.274 21.248 544.482 21.624V20.424H545.586V27H544.482V25.776C544.266 26.16 543.942 26.48 543.51 26.736C543.086 26.984 542.59 27.108 542.022 27.108C541.438 27.108 540.91 26.964 540.438 26.676C539.966 26.388 539.594 25.984 539.322 25.464C539.05 24.944 538.914 24.352 538.914 23.688ZM544.482 23.7C544.482 23.204 544.382 22.772 544.182 22.404C543.982 22.036 543.71 21.756 543.366 21.564C543.03 21.364 542.658 21.264 542.25 21.264C541.842 21.264 541.47 21.36 541.134 21.552C540.798 21.744 540.53 22.024 540.33 22.392C540.13 22.76 540.03 23.192 540.03 23.688C540.03 24.192 540.13 24.632 540.33 25.008C540.53 25.376 540.798 25.66 541.134 25.86C541.47 26.052 541.842 26.148 542.25 26.148C542.658 26.148 543.03 26.052 543.366 25.86C543.71 25.66 543.982 25.376 544.182 25.008C544.382 24.632 544.482 24.196 544.482 23.7ZM548.524 18.12V27H547.432V18.12H548.524ZM550.949 19.356C550.741 19.356 550.565 19.284 550.421 19.14C550.277 18.996 550.205 18.82 550.205 18.612C550.205 18.404 550.277 18.228 550.421 18.084C550.565 17.94 550.741 17.868 550.949 17.868C551.149 17.868 551.317 17.94 551.453 18.084C551.597 18.228 551.669 18.404 551.669 18.612C551.669 18.82 551.597 18.996 551.453 19.14C551.317 19.284 551.149 19.356 550.949 19.356ZM551.477 20.424V27H550.385V20.424H551.477ZM556.014 21.324H554.634V27H553.542V21.324H552.69V20.424H553.542V19.956C553.542 19.22 553.73 18.684 554.106 18.348C554.49 18.004 555.102 17.832 555.942 17.832V18.744C555.462 18.744 555.122 18.84 554.922 19.032C554.73 19.216 554.634 19.524 554.634 19.956V20.424H556.014V21.324ZM560.155 27.108C559.539 27.108 558.979 26.968 558.475 26.688C557.979 26.408 557.587 26.012 557.299 25.5C557.019 24.98 556.879 24.38 556.879 23.7C556.879 23.028 557.023 22.436 557.311 21.924C557.607 21.404 558.007 21.008 558.511 20.736C559.015 20.456 559.579 20.316 560.203 20.316C560.827 20.316 561.391 20.456 561.895 20.736C562.399 21.008 562.795 21.4 563.083 21.912C563.379 22.424 563.527 23.02 563.527 23.7C563.527 24.38 563.375 24.98 563.071 25.5C562.775 26.012 562.371 26.408 561.859 26.688C561.347 26.968 560.779 27.108 560.155 27.108ZM560.155 26.148C560.547 26.148 560.915 26.056 561.259 25.872C561.603 25.688 561.879 25.412 562.087 25.044C562.303 24.676 562.411 24.228 562.411 23.7C562.411 23.172 562.307 22.724 562.099 22.356C561.891 21.988 561.619 21.716 561.283 21.54C560.947 21.356 560.583 21.264 560.191 21.264C559.791 21.264 559.423 21.356 559.087 21.54C558.759 21.716 558.495 21.988 558.295 22.356C558.095 22.724 557.995 23.172 557.995 23.7C557.995 24.236 558.091 24.688 558.283 25.056C558.483 25.424 558.747 25.7 559.075 25.884C559.403 26.06 559.763 26.148 560.155 26.148ZM566.055 21.492C566.247 21.116 566.519 20.824 566.871 20.616C567.231 20.408 567.667 20.304 568.179 20.304V21.432H567.891C566.667 21.432 566.055 22.096 566.055 23.424V27H564.963V20.424H566.055V21.492ZM572.644 20.304C573.444 20.304 574.092 20.548 574.588 21.036C575.084 21.516 575.332 22.212 575.332 23.124V27H574.252V23.28C574.252 22.624 574.088 22.124 573.76 21.78C573.432 21.428 572.984 21.252 572.416 21.252C571.84 21.252 571.38 21.432 571.036 21.792C570.7 22.152 570.532 22.676 570.532 23.364V27H569.44V20.424H570.532V21.36C570.748 21.024 571.04 20.764 571.408 20.58C571.784 20.396 572.196 20.304 572.644 20.304ZM577.679 19.356C577.471 19.356 577.295 19.284 577.151 19.14C577.007 18.996 576.935 18.82 576.935 18.612C576.935 18.404 577.007 18.228 577.151 18.084C577.295 17.94 577.471 17.868 577.679 17.868C577.879 17.868 578.047 17.94 578.183 18.084C578.327 18.228 578.399 18.404 578.399 18.612C578.399 18.82 578.327 18.996 578.183 19.14C578.047 19.284 577.879 19.356 577.679 19.356ZM578.207 20.424V27H577.115V20.424H578.207ZM579.661 23.688C579.661 23.016 579.797 22.428 580.069 21.924C580.341 21.412 580.713 21.016 581.185 20.736C581.665 20.456 582.197 20.316 582.781 20.316C583.357 20.316 583.857 20.44 584.281 20.688C584.705 20.936 585.021 21.248 585.229 21.624V20.424H586.333V27H585.229V25.776C585.013 26.16 584.689 26.48 584.257 26.736C583.833 26.984 583.337 27.108 582.769 27.108C582.185 27.108 581.657 26.964 581.185 26.676C580.713 26.388 580.341 25.984 580.069 25.464C579.797 24.944 579.661 24.352 579.661 23.688ZM585.229 23.7C585.229 23.204 585.129 22.772 584.929 22.404C584.729 22.036 584.457 21.756 584.113 21.564C583.777 21.364 583.405 21.264 582.997 21.264C582.589 21.264 582.217 21.36 581.881 21.552C581.545 21.744 581.277 22.024 581.077 22.392C580.877 22.76 580.777 23.192 580.777 23.688C580.777 24.192 580.877 24.632 581.077 25.008C581.277 25.376 581.545 25.66 581.881 25.86C582.217 26.052 582.589 26.148 582.997 26.148C583.405 26.148 583.777 26.052 584.113 25.86C584.457 25.66 584.729 25.376 584.929 25.008C585.129 24.632 585.229 24.196 585.229 23.7Z" fill="white"/>
<g clip-path="url(#clip1_0_239)">
<path d="M457.845 31.0731L463.79 18.1204C464.495 16.5927 463.32 15.5282 461.83 16.2108L448.862 22.1996C447.517 22.8172 447.801 24.7267 449.332 24.7349L455.147 24.7511C455.245 24.7511 455.261 24.7593 455.261 24.8649L455.277 30.6749C455.277 32.1863 457.18 32.5195 457.845 31.0731Z" fill="white"/>
</g>
<defs>
<clipPath id="clip0_0_239">
<rect width="16" height="16" fill="white" transform="translate(344 16)"/>
</clipPath>
<clipPath id="clip1_0_239">
<rect width="16" height="16" fill="white" transform="translate(448 16)"/>
</clipPath>
</defs>
</svg>
